<svg width="180" height="60" viewBox="0 0 180 60" fill="none" xmlns="http://www.w3.org/2000/svg">
<path d="M160.53 46.495C160.046 46.495 159.639 46.33 159.309 46C159.001 45.692 158.847 45.296 158.847 44.812V29.764C158.869 28.026 159.276 26.464 160.068 25.078C160.86 23.692 161.938 22.603 163.302 21.811C164.666 20.997 166.206 20.59 167.922 20.59C169.66 20.59 171.211 20.997 172.575 21.811C173.939 22.603 175.017 23.692 175.809 25.078C176.623 26.464 177.03 28.026 177.03 29.764C177.03 31.502 176.656 33.064 175.908 34.45C175.182 35.814 174.181 36.903 172.905 37.717C171.629 38.509 170.188 38.905 168.582 38.905C167.284 38.905 166.085 38.641 164.985 38.113C163.907 37.563 162.983 36.826 162.213 35.902V44.812C162.213 45.296 162.059 45.692 161.751 46C161.443 46.33 161.036 46.495 160.53 46.495ZM167.922 35.935C169.044 35.935 170.045 35.671 170.925 35.143C171.805 34.593 172.498 33.856 173.004 32.932C173.532 31.986 173.796 30.93 173.796 29.764C173.796 28.576 173.532 27.52 173.004 26.596C172.498 25.65 171.805 24.913 170.925 24.385C170.045 23.835 169.044 23.56 167.922 23.56C166.822 23.56 165.821 23.835 164.919 24.385C164.039 24.913 163.346 25.65 162.84 26.596C162.334 27.52 162.081 28.576 162.081 29.764C162.081 30.93 162.334 31.986 162.84 32.932C163.346 33.856 164.039 34.593 164.919 35.143C165.821 35.671 166.822 35.935 167.922 35.935Z" fill="#FF2E63"/>
<path d="M144.762 38.905C142.98 38.905 141.407 38.52 140.043 37.75C138.679 36.958 137.601 35.88 136.809 34.516C136.039 33.13 135.654 31.546 135.654 29.764C135.654 27.96 136.039 26.376 136.809 25.012C137.601 23.626 138.679 22.548 140.043 21.778C141.407 20.986 142.98 20.59 144.762 20.59C146.522 20.59 148.084 20.986 149.448 21.778C150.812 22.548 151.879 23.626 152.649 25.012C153.441 26.376 153.837 27.96 153.837 29.764C153.837 31.546 153.452 33.13 152.682 34.516C151.912 35.88 150.845 36.958 149.481 37.75C148.117 38.52 146.544 38.905 144.762 38.905ZM144.762 35.935C145.906 35.935 146.918 35.671 147.798 35.143C148.678 34.615 149.36 33.889 149.844 32.965C150.35 32.041 150.603 30.974 150.603 29.764C150.603 28.554 150.35 27.487 149.844 26.563C149.36 25.617 148.678 24.88 147.798 24.352C146.918 23.824 145.906 23.56 144.762 23.56C143.618 23.56 142.606 23.824 141.726 24.352C140.846 24.88 140.153 25.617 139.647 26.563C139.141 27.487 138.888 28.554 138.888 29.764C138.888 30.974 139.141 32.041 139.647 32.965C140.153 33.889 140.846 34.615 141.726 35.143C142.606 35.671 143.618 35.935 144.762 35.935Z" fill="#FF2E63"/>
<path d="M115.735 32.206C115.251 32.206 114.844 32.052 114.514 31.744C114.206 31.414 114.052 31.007 114.052 30.523V14.683C114.052 14.177 114.206 13.77 114.514 13.462C114.844 13.154 115.251 13 115.735 13C116.241 13 116.648 13.154 116.956 13.462C117.264 13.77 117.418 14.177 117.418 14.683V30.523C117.418 31.007 117.264 31.414 116.956 31.744C116.648 32.052 116.241 32.206 115.735 32.206ZM129.298 38.806C128.814 38.806 128.407 38.652 128.077 38.344C127.769 38.014 127.615 37.607 127.615 37.123V29.005C127.615 27.751 127.384 26.728 126.922 25.936C126.46 25.144 125.833 24.561 125.041 24.187C124.271 23.791 123.38 23.593 122.368 23.593C121.444 23.593 120.608 23.78 119.86 24.154C119.112 24.528 118.518 25.034 118.078 25.672C117.638 26.288 117.418 27.003 117.418 27.817H115.339C115.339 26.431 115.669 25.199 116.329 24.121C117.011 23.021 117.935 22.152 119.101 21.514C120.267 20.876 121.576 20.557 123.028 20.557C124.546 20.557 125.899 20.887 127.087 21.547C128.297 22.185 129.243 23.131 129.925 24.385C130.629 25.639 130.981 27.179 130.981 29.005V37.123C130.981 37.607 130.816 38.014 130.486 38.344C130.178 38.652 129.782 38.806 129.298 38.806ZM115.735 38.806C115.251 38.806 114.844 38.652 114.514 38.344C114.206 38.014 114.052 37.607 114.052 37.123V22.405C114.052 21.899 114.206 21.492 114.514 21.184C114.844 20.876 115.251 20.722 115.735 20.722C116.241 20.722 116.648 20.876 116.956 21.184C117.264 21.492 117.418 21.899 117.418 22.405V37.123C117.418 37.607 117.264 38.014 116.956 38.344C116.648 38.652 116.241 38.806 115.735 38.806Z" fill="#FF2E63"/>
<path d="M102.701 38.905C101.161 38.905 99.7312 38.674 98.4112 38.212C97.1132 37.728 96.1012 37.123 95.3752 36.397C95.0452 36.045 94.9022 35.649 94.9462 35.209C95.0122 34.747 95.2322 34.373 95.6062 34.087C96.0462 33.735 96.4752 33.592 96.8932 33.658C97.3332 33.702 97.7072 33.889 98.0152 34.219C98.3892 34.637 98.9832 35.033 99.7972 35.407C100.633 35.759 101.557 35.935 102.569 35.935C103.845 35.935 104.813 35.726 105.473 35.308C106.155 34.89 106.507 34.351 106.529 33.691C106.551 33.031 106.232 32.459 105.572 31.975C104.934 31.491 103.757 31.095 102.041 30.787C99.8192 30.347 98.2022 29.687 97.1902 28.807C96.2002 27.927 95.7052 26.849 95.7052 25.573C95.7052 24.451 96.0352 23.527 96.6952 22.801C97.3552 22.053 98.2022 21.503 99.2362 21.151C100.27 20.777 101.348 20.59 102.47 20.59C103.922 20.59 105.209 20.821 106.331 21.283C107.453 21.745 108.344 22.383 109.004 23.197C109.312 23.549 109.455 23.923 109.433 24.319C109.411 24.693 109.224 25.012 108.872 25.276C108.52 25.518 108.102 25.595 107.618 25.507C107.134 25.419 106.727 25.221 106.397 24.913C105.847 24.385 105.253 24.022 104.615 23.824C103.977 23.626 103.24 23.527 102.404 23.527C101.436 23.527 100.611 23.692 99.9292 24.022C99.2692 24.352 98.9392 24.836 98.9392 25.474C98.9392 25.87 99.0382 26.233 99.2362 26.563C99.4562 26.871 99.8742 27.157 100.49 27.421C101.106 27.663 102.008 27.905 103.196 28.147C104.846 28.477 106.144 28.895 107.09 29.401C108.058 29.907 108.751 30.501 109.169 31.183C109.587 31.843 109.796 32.613 109.796 33.493C109.796 34.505 109.521 35.418 108.971 36.232C108.443 37.046 107.651 37.695 106.595 38.179C105.561 38.663 104.263 38.905 102.701 38.905Z" fill="#FF2E63"/>
<path d="M90.5301 38.773C89.5621 38.773 88.7041 38.509 87.9561 37.981C87.2081 37.453 86.6251 36.738 86.2071 35.836C85.7891 34.912 85.5801 33.856 85.5801 32.668V14.65C85.5801 14.166 85.7341 13.77 86.0421 13.462C86.3501 13.154 86.7461 13 87.2301 13C87.7141 13 88.1101 13.154 88.4181 13.462C88.7261 13.77 88.8801 14.166 88.8801 14.65V32.668C88.8801 33.482 89.0341 34.153 89.3421 34.681C89.6501 35.209 90.0461 35.473 90.5301 35.473H91.3551C91.7951 35.473 92.1471 35.627 92.4111 35.935C92.6971 36.243 92.8401 36.639 92.8401 37.123C92.8401 37.607 92.6311 38.003 92.2131 38.311C91.7951 38.619 91.2561 38.773 90.5961 38.773H90.5301Z" fill="#FF2E63"/>
<path d="M71.4959 38.905C69.8899 38.905 68.4489 38.509 67.1729 37.717C65.8969 36.903 64.8849 35.814 64.1369 34.45C63.4109 33.064 63.0479 31.502 63.0479 29.764C63.0479 28.026 63.4439 26.464 64.2359 25.078C65.0499 23.692 66.1389 22.603 67.5029 21.811C68.8889 20.997 70.4399 20.59 72.1559 20.59C73.8719 20.59 75.4119 20.997 76.7759 21.811C78.1399 22.603 79.2179 23.692 80.0099 25.078C80.8239 26.464 81.2309 28.026 81.2309 29.764H79.9439C79.9439 31.502 79.5699 33.064 78.8219 34.45C78.0959 35.814 77.0949 36.903 75.8189 37.717C74.5429 38.509 73.1019 38.905 71.4959 38.905ZM72.1559 35.935C73.2779 35.935 74.2789 35.671 75.1589 35.143C76.0389 34.593 76.7319 33.856 77.2379 32.932C77.7439 31.986 77.9969 30.93 77.9969 29.764C77.9969 28.576 77.7439 27.52 77.2379 26.596C76.7319 25.65 76.0389 24.913 75.1589 24.385C74.2789 23.835 73.2779 23.56 72.1559 23.56C71.0559 23.56 70.0549 23.835 69.1529 24.385C68.2729 24.913 67.5689 25.65 67.0409 26.596C66.5349 27.52 66.2819 28.576 66.2819 29.764C66.2819 30.93 66.5349 31.986 67.0409 32.932C67.5689 33.856 68.2729 34.593 69.1529 35.143C70.0549 35.671 71.0559 35.935 72.1559 35.935ZM79.5479 38.806C79.0639 38.806 78.6569 38.652 78.3269 38.344C78.0189 38.014 77.8649 37.607 77.8649 37.123V32.074L78.4919 28.576L81.2309 29.764V37.123C81.2309 37.607 81.0659 38.014 80.7359 38.344C80.4279 38.652 80.0319 38.806 79.5479 38.806Z" fill="#FF2E63"/>
<path d="M48.5111 38.146L46.2671 36.166L57.4871 21.349L59.6981 23.329L48.5111 38.146ZM47.5211 38.773C46.4871 38.773 45.9701 38.256 45.9701 37.222C45.9701 36.188 46.4871 35.671 47.5211 35.671H58.7741C59.8081 35.671 60.3251 36.188 60.3251 37.222C60.3251 38.256 59.8081 38.773 58.7741 38.773H47.5211ZM47.1911 23.824C46.1571 23.824 45.6401 23.307 45.6401 22.273C45.6401 21.239 46.1571 20.722 47.1911 20.722H58.4441C59.4781 20.722 59.9951 21.239 59.9951 22.273C59.9951 23.307 59.4781 23.824 58.4441 23.824H47.1911Z" fill="#FF2E63"/>
<path d="M32.0505 38.905C30.4445 38.905 29.0035 38.509 27.7275 37.717C26.4515 36.903 25.4395 35.814 24.6915 34.45C23.9655 33.064 23.6025 31.502 23.6025 29.764C23.6025 28.026 23.9985 26.464 24.7905 25.078C25.6045 23.692 26.6935 22.603 28.0575 21.811C29.4435 20.997 30.9945 20.59 32.7105 20.59C34.4265 20.59 35.9665 20.997 37.3305 21.811C38.6945 22.603 39.7725 23.692 40.5645 25.078C41.3785 26.464 41.7855 28.026 41.7855 29.764H40.4985C40.4985 31.502 40.1245 33.064 39.3765 34.45C38.6505 35.814 37.6495 36.903 36.3735 37.717C35.0975 38.509 33.6565 38.905 32.0505 38.905ZM32.7105 35.935C33.8325 35.935 34.8335 35.671 35.7135 35.143C36.5935 34.593 37.2865 33.856 37.7925 32.932C38.2985 31.986 38.5515 30.93 38.5515 29.764C38.5515 28.576 38.2985 27.52 37.7925 26.596C37.2865 25.65 36.5935 24.913 35.7135 24.385C34.8335 23.835 33.8325 23.56 32.7105 23.56C31.6105 23.56 30.6095 23.835 29.7075 24.385C28.8275 24.913 28.1235 25.65 27.5955 26.596C27.0895 27.52 26.8365 28.576 26.8365 29.764C26.8365 30.93 27.0895 31.986 27.5955 32.932C28.1235 33.856 28.8275 34.593 29.7075 35.143C30.6095 35.671 31.6105 35.935 32.7105 35.935ZM40.1025 38.806C39.6185 38.806 39.2115 38.652 38.8815 38.344C38.5735 38.014 38.4195 37.607 38.4195 37.123V32.074L39.0465 28.576L41.7855 29.764V37.123C41.7855 37.607 41.6205 38.014 41.2905 38.344C40.9825 38.652 40.5865 38.806 40.1025 38.806Z" fill="#FF2E63"/>
<path d="M3.683 32.206C3.199 32.206 2.792 32.052 2.462 31.744C2.154 31.414 2 31.007 2 30.523V14.683C2 14.177 2.154 13.77 2.462 13.462C2.792 13.154 3.199 13 3.683 13C4.189 13 4.596 13.154 4.904 13.462C5.212 13.77 5.366 14.177 5.366 14.683V30.523C5.366 31.007 5.212 31.414 4.904 31.744C4.596 32.052 4.189 32.206 3.683 32.206ZM17.246 38.806C16.762 38.806 16.355 38.652 16.025 38.344C15.717 38.014 15.563 37.607 15.563 37.123V29.005C15.563 27.751 15.332 26.728 14.87 25.936C14.408 25.144 13.781 24.561 12.989 24.187C12.219 23.791 11.328 23.593 10.316 23.593C9.392 23.593 8.556 23.78 7.808 24.154C7.06 24.528 6.466 25.034 6.026 25.672C5.586 26.288 5.366 27.003 5.366 27.817H3.287C3.287 26.431 3.617 25.199 4.277 24.121C4.959 23.021 5.883 22.152 7.049 21.514C8.215 20.876 9.524 20.557 10.976 20.557C12.494 20.557 13.847 20.887 15.035 21.547C16.245 22.185 17.191 23.131 17.873 24.385C18.577 25.639 18.929 27.179 18.929 29.005V37.123C18.929 37.607 18.764 38.014 18.434 38.344C18.126 38.652 17.73 38.806 17.246 38.806ZM3.683 38.806C3.199 38.806 2.792 38.652 2.462 38.344C2.154 38.014 2 37.607 2 37.123V22.405C2 21.899 2.154 21.492 2.462 21.184C2.792 20.876 3.199 20.722 3.683 20.722C4.189 20.722 4.596 20.876 4.904 21.184C5.212 21.492 5.366 21.899 5.366 22.405V37.123C5.366 37.607 5.212 38.014 4.904 38.344C4.596 38.652 4.189 38.806 3.683 38.806Z" fill="#FF2E63"/>
</svg>
