<svg width="75" height="80" viewBox="0 0 75 80" fill="none" xmlns="http://www.w3.org/2000/svg">
<path d="M75 57.5285C74.9997 62.7731 73.2473 67.8602 70.033 71.947C66.8187 76.0338 62.3356 78.875 57.3263 80L54.9338 72.6603C57.1249 72.2921 59.2088 71.431 61.0349 70.1392C62.8611 68.8474 64.384 67.1571 65.4938 65.1903H56.25C54.2609 65.1903 52.3532 64.3823 50.9467 62.944C49.5402 61.5057 48.75 59.5549 48.75 57.5209V42.182C48.75 40.1479 49.5402 38.1971 50.9467 36.7588C52.3532 35.3205 54.2609 34.5125 56.25 34.5125H67.2675C66.3524 27.0996 62.8234 20.2829 57.3428 15.3415C51.8622 10.4001 44.8067 7.67357 37.5 7.67357C30.1933 7.67357 23.1378 10.4001 17.6572 15.3415C12.1765 20.2829 8.64762 27.0996 7.7325 34.5125H18.75C20.7391 34.5125 22.6468 35.3205 24.0533 36.7588C25.4598 38.1971 26.25 40.1479 26.25 42.182V57.5209C26.25 59.5549 25.4598 61.5057 24.0533 62.944C22.6468 64.3823 20.7391 65.1903 18.75 65.1903H7.5C5.51088 65.1903 3.60322 64.3823 2.1967 62.944C0.790176 61.5057 0 59.5549 0 57.5209V38.3472C0 17.1681 16.7888 0 37.5 0C58.2112 0 75 17.1681 75 38.3472V57.5285Z" fill="black"/>
</svg>
