<svg width="92" height="92" viewBox="0 0 92 92" fill="none" xmlns="http://www.w3.org/2000/svg">
<path d="M6.00472 43.6444V53.0578C6.0041 55.5299 6.5209 57.978 7.5256 60.2621C8.53029 62.5462 10.0032 64.6217 11.8602 66.37C13.7172 68.1183 15.922 69.5051 18.3485 70.4513C20.775 71.3974 23.3758 71.8844 26.0024 71.8844H85.9953M6.00472 20.1156H65.9976C68.6246 20.115 71.2259 20.6015 73.6529 21.5475C76.08 22.4934 78.2853 23.8801 80.1428 25.6285C82.0003 27.3768 83.4737 29.4525 84.4787 31.7369C85.4837 34.0213 86.0006 36.4697 86 38.9422V48.3511M70.9982 57.7644L86 71.88L70.9982 86M21.0018 34.2356L6 20.1156L21.0018 6" stroke="black" stroke-width="12" stroke-linecap="round" stroke-linejoin="round"/>
</svg>
