<svg width="22" height="22" viewBox="0 0 22 22" fill="none" xmlns="http://www.w3.org/2000/svg">
<path d="M1 5.44444H21M8.5 9.88889V16.5556M13.5 9.88889V16.5556M2.25 5.44444L3.5 18.7778C3.5 19.3671 3.76339 19.9324 4.23223 20.3491C4.70107 20.7659 5.33696 21 6 21H16C16.663 21 17.2989 20.7659 17.7678 20.3491C18.2366 19.9324 18.5 19.3671 18.5 18.7778L19.75 5.44444M7.25 5.44444V2.11111C7.25 1.81643 7.3817 1.53381 7.61612 1.32544C7.85054 1.11706 8.16848 1 8.5 1H13.5C13.8315 1 14.1495 1.11706 14.3839 1.32544C14.6183 1.53381 14.75 1.81643 14.75 2.11111V5.44444" stroke="#666666" stroke-width="2" stroke-linecap="round" stroke-linejoin="round"/>
</svg>
