<svg width="60" height="25" viewBox="0 0 60 25" fill="none" xmlns="http://www.w3.org/2000/svg">
<rect width="60" height="25" rx="4" fill="#252525"/>
<path d="M25.125 21.25C29.6123 21.25 33.25 17.6123 33.25 13.125C33.25 8.63769 29.6123 5 25.125 5C20.6377 5 17 8.63769 17 13.125C17 17.6123 20.6377 21.25 25.125 21.25Z" fill="#EB001B"/>
<path d="M34.875 21.25C39.3623 21.25 43 17.6123 43 13.125C43 8.63769 39.3623 5 34.875 5C30.3877 5 26.75 8.63769 26.75 13.125C26.75 17.6123 30.3877 21.25 34.875 21.25Z" fill="#F79E1B"/>
<path fill-rule="evenodd" clip-rule="evenodd" d="M30 6.62439C31.9735 8.10672 33.25 10.4668 33.25 13.125C33.25 15.7832 31.9735 18.1432 30 19.6256C28.0265 18.1432 26.75 15.7832 26.75 13.125C26.75 10.4668 28.0265 8.10672 30 6.62439Z" fill="#FF5F00"/>
</svg>
