<svg width="62" height="27" viewBox="0 0 62 27" fill="none" xmlns="http://www.w3.org/2000/svg">
<rect x="1" y="1" width="60" height="25" rx="4" fill="white"/>
<rect x="1" y="1" width="60" height="25" rx="4" stroke="black" stroke-opacity="0.2" stroke-width="0.5"/>
<path d="M15.1498 9.57759C14.2281 9.08258 13.1761 8.68445 12 8.40817L12.0493 8.19302H16.8716C17.5253 8.21545 18.0557 8.40802 18.2282 9.08811L19.2763 13.9806L19.5973 15.4541L22.5326 8.19302H25.702L20.9908 18.83H17.8213L15.1498 9.57759ZM28.0333 18.8413H25.036L26.9107 8.19302H29.9078L28.0333 18.8413ZM38.8986 8.45334L38.491 10.7527L38.2199 10.6396C37.6776 10.4243 36.9616 10.2092 35.9872 10.2319C34.8039 10.2319 34.2732 10.6961 34.2609 11.1493C34.2609 11.6478 34.9029 11.9763 35.9512 12.4635C37.678 13.2225 38.479 14.1513 38.4671 15.3635C38.4428 17.5725 36.3954 19 33.2504 19C31.9058 18.9886 30.6106 18.7275 29.9077 18.4333L30.3271 16.043L30.7218 16.2131C31.6961 16.61 32.3373 16.7795 33.534 16.7795C34.3969 16.7795 35.3221 16.4507 35.3339 15.7373C35.3339 15.2729 34.9398 14.9327 33.7802 14.4116C32.6456 13.9017 31.1287 13.0522 31.1533 11.5228C31.1661 9.4499 33.2504 8 36.2103 8C37.3697 8 38.3074 8.23789 38.8986 8.45334ZM42.8822 15.069H45.3735C45.2503 14.5366 44.6827 11.9878 44.6827 11.9878L44.4732 11.0702C44.3252 11.4667 44.0664 12.1124 44.0789 12.0897C44.0789 12.0897 43.1291 14.4573 42.8822 15.069ZM46.582 8.19302L49 18.8412H46.2248C46.2248 18.8412 45.9532 17.6177 45.8672 17.2439H42.019C41.9077 17.5269 41.3899 18.8412 41.3899 18.8412H38.245L42.697 9.07651C43.0055 8.38544 43.5487 8.19302 44.2636 8.19302H46.582Z" fill="#1434CB"/>
</svg>
