<svg width="24" height="9" viewBox="0 0 24 9" fill="none" xmlns="http://www.w3.org/2000/svg">
<path d="M0 2C0 0.89543 0.895431 0 2 0H22C23.1046 0 24 0.895431 24 2V7C24 8.10457 23.1046 9 22 9H2C0.89543 9 0 8.10457 0 7V2Z" fill="black"/>
<path d="M12.9873 1.90545H10.0128V7.09373H12.9873V1.90545Z" fill="#FF5F00"/>
<path d="M10.2017 4.4996C10.2013 3.99993 10.3179 3.5067 10.5428 3.05726C10.7678 2.60783 11.0951 2.21395 11.5001 1.90546C10.9986 1.52286 10.3963 1.28492 9.76214 1.21885C9.12793 1.15278 8.48737 1.26123 7.91367 1.53182C7.33996 1.80241 6.85626 2.22422 6.51786 2.74903C6.17945 3.27384 6 3.88047 6 4.4996C6 5.11872 6.17945 5.72536 6.51786 6.25017C6.85626 6.77497 7.33996 7.19678 7.91367 7.46737C8.48737 7.73796 9.12793 7.84642 9.76214 7.78034C10.3963 7.71427 10.9986 7.47634 11.5001 7.09374C11.0951 6.78524 10.7678 6.39137 10.5429 5.94193C10.3179 5.49249 10.2013 4.99926 10.2017 4.4996Z" fill="#EB001B"/>
<path d="M17 4.4996C17 5.11871 16.8206 5.72535 16.4822 6.25016C16.1438 6.77496 15.6601 7.19677 15.0864 7.46736C14.5127 7.73796 13.8722 7.84642 13.238 7.78034C12.6038 7.71427 12.0015 7.47634 11.5001 7.09374C11.9047 6.78493 12.2318 6.39099 12.4567 5.94162C12.6816 5.49226 12.7984 4.99919 12.7984 4.4996C12.7984 4.00001 12.6816 3.50694 12.4567 3.05757C12.2318 2.6082 11.9047 2.21426 11.5001 1.90546C12.0015 1.52286 12.6038 1.28492 13.238 1.21885C13.8722 1.15278 14.5127 1.26124 15.0864 1.53183C15.6601 1.80242 16.1438 2.22423 16.4822 2.74904C16.8206 3.27385 17 3.88048 17 4.4996Z" fill="#F79E1B"/>
<path d="M16.6757 6.54422V6.438H16.7198V6.41635H16.6074V6.438H16.6516V6.54422H16.6757ZM16.8939 6.54422V6.41614H16.8594L16.8198 6.50423L16.7802 6.41614H16.7457V6.54422H16.77V6.44761L16.8072 6.5309H16.8324L16.8695 6.4474V6.54422H16.8939Z" fill="#F79E1B"/>
</svg>
